<svg width="277" height="277" viewBox="0 0 277 277" fill="none" xmlns="http://www.w3.org/2000/svg">
<path d="M153.173 66.0981C153.173 68.933 153.173 78.173 153.173 91.3002H198.307L193.414 131.534H153.173C153.173 193.582 153.173 276.729 153.173 276.729H99.7611C99.7611 276.729 99.7611 194.682 99.7611 131.534H71.9297V91.3002H99.7611C99.7611 75.3446 99.7611 63.9989 99.7611 60.8399C99.7611 45.7889 98.6272 38.6475 105.022 26.9843C111.421 15.3216 129.469 -0.094114 160.685 0.277023C191.909 0.661685 205.07 3.6654 205.07 3.6654L198.307 46.5447C198.307 46.5447 178.369 41.2801 168.583 43.1563C158.809 45.0331 153.173 51.0535 153.173 66.0981Z" fill="#FFF34A"/>
</svg>
