<svg width="240" height="240" viewBox="0 0 240 240" fill="none" xmlns="http://www.w3.org/2000/svg">
<path fill-rule="evenodd" clip-rule="evenodd" d="M120 180C153.137 180 180 153.137 180 120C180 86.8629 153.137 60 120 60C86.8629 60 60 86.8629 60 120C60 153.137 86.8629 180 120 180ZM120 160C142.091 160 160 142.091 160 120C160 97.9086 142.091 80 120 80C97.9086 80 80 97.9086 80 120C80 142.091 97.9086 160 120 160Z" fill="#FFF34A"/>
<path d="M180 50C174.477 50 170 54.4772 170 60C170 65.5228 174.477 70 180 70C185.523 70 190 65.5228 190 60C190 54.4772 185.523 50 180 50Z" fill="#FFF34A"/>
<path fill-rule="evenodd" clip-rule="evenodd" d="M16.5396 42.7606C10 55.5953 10 72.3969 10 106V134C10 167.603 10 184.405 16.5396 197.239C22.292 208.529 31.4708 217.708 42.7606 223.46C55.5953 230 72.3969 230 106 230H134C167.603 230 184.405 230 197.239 223.46C208.529 217.708 217.708 208.529 223.46 197.239C230 184.405 230 167.603 230 134V106C230 72.3969 230 55.5953 223.46 42.7606C217.708 31.4708 208.529 22.292 197.239 16.5396C184.405 10 167.603 10 134 10H106C72.3969 10 55.5953 10 42.7606 16.5396C31.4708 22.292 22.292 31.4708 16.5396 42.7606ZM134 30H106C88.8684 30 77.2225 30.0156 68.2208 30.751C59.4524 31.4674 54.9684 32.7659 51.8404 34.3597C44.3139 38.1947 38.1947 44.3139 34.3597 51.8404C32.7659 54.9684 31.4674 59.4524 30.751 68.2208C30.0156 77.2225 30 88.8684 30 106V134C30 151.132 30.0156 162.777 30.751 171.779C31.4674 180.548 32.7659 185.032 34.3597 188.16C38.1947 195.686 44.3139 201.805 51.8404 205.64C54.9684 207.234 59.4524 208.533 68.2208 209.249C77.2225 209.984 88.8684 210 106 210H134C151.132 210 162.777 209.984 171.779 209.249C180.548 208.533 185.032 207.234 188.16 205.64C195.686 201.805 201.805 195.686 205.64 188.16C207.234 185.032 208.533 180.548 209.249 171.779C209.984 162.777 210 151.132 210 134V106C210 88.8684 209.984 77.2225 209.249 68.2208C208.533 59.4524 207.234 54.9684 205.64 51.8404C201.805 44.3139 195.686 38.1947 188.16 34.3597C185.032 32.7659 180.548 31.4674 171.779 30.751C162.777 30.0156 151.132 30 134 30Z" fill="#FFF34A"/>
</svg>
