<svg width="56" height="54" viewBox="0 0 56 54" fill="none" xmlns="http://www.w3.org/2000/svg">
<path d="M28 25.7573C31.3427 25.7573 34.5485 24.4294 36.9122 22.0658C39.2759 19.7021 40.6037 16.4963 40.6038 13.1536C40.6037 9.81083 39.2759 6.60502 36.9122 4.24136C34.5485 1.8777 31.3427 0.549805 28 0.549805C24.6573 0.549805 21.4515 1.8777 19.0878 4.24136C16.7241 6.60502 15.3962 9.81083 15.3962 13.1536C15.3962 16.4963 16.7241 19.7021 19.0878 22.0658C21.4515 24.4294 24.6573 25.7573 28 25.7573ZM28 31.2948C11.2425 31.2948 0.5 40.5423 0.5 45.0448V53.4523H55.5V45.0448C55.5 39.5998 45.33 31.2948 28 31.2948Z" fill="#E20019"/>
</svg>
