<svg width="50" height="47" viewBox="0 0 50 47" fill="none" xmlns="http://www.w3.org/2000/svg">
<g clip-path="url(#clip0_3_5)">
<path d="M34.8783 30.1525L33.613 31.4044C33.613 31.4044 30.6058 34.3806 22.3975 26.257C14.1892 18.1338 17.1964 15.1577 17.1964 15.1577L17.993 14.3693C19.9558 12.4269 20.1408 9.30853 18.4283 7.03198L14.9257 2.3751C12.8063 -0.442585 8.71099 -0.814798 6.28179 1.58923L1.9218 5.90409C0.7173 7.09613 -0.089866 8.64135 0.00802276 10.3555C0.258439 14.7409 2.25196 24.1766 13.376 35.1854C25.1725 46.8597 36.2411 47.3236 40.7675 46.9036C42.1991 46.7709 43.4441 46.0452 44.4475 45.0521L48.3936 41.1472C51.0572 38.5111 50.3061 33.9919 46.898 32.1481L41.5911 29.2766C39.3533 28.066 36.6272 28.4215 34.8783 30.1525Z" fill="black"/>
</g>
<defs>
<clipPath id="clip0_3_5">
<rect width="50" height="47" fill="white"/>
</clipPath>
</defs>
</svg>
